# xmcd CD database file
#
# Track frame offsets:
#	150
#	14657
#	27577
#	41777
#	51852
#	68435
#	90620
#	97125
#	117172
#	131887
#	143120
#	154372
#	159252
#	174597
#	184755
#	195860
#	205542
#	223480
#	240777
#	256630
#	272042
#	282877
#
# Disc length: 4027 seconds
#
# Revision: 2
# Processed by: cddbd v1.4b41PL1 Copyright (c) Steve Scherf et al.
# Submitted via: Feurio! 1.50.2ß - http://www.feurio.com
#
DISCID=3a0fb916
DTITLE=Various Artist - Irish Folk, The Collection Vol. 2
DYEAR=1900
DGENRE=
TTITLE0=The Dubliners - The Wild Rover
TTITLE1=The Dubliners - Easy And Slow
TTITLE2=The Dubliners - Home Boys Home
TTITLE3=The Dubliners - Chief O'Neill's Favourite
TTITLE4=The Grehan Sisters - The Black Velvet Band
TTITLE5=The Grehan Sisters - The Wexford Massacre
TTITLE6=Finbar and Eddie Furey - Bill Hart's Favourite
TTITLE7=Finbar and Eddie Furey - Dace Around The Spinning Wheel
TTITLE8=Finbar and Eddie Furey - The Lonesome Boatman
TTITLE9=Finbar and Eddie Furey - Carron Lough Bay
TTITLE10=Mick Moloney - Two Jigs
TTITLE11=Mick Moloney - The Pipe On The Hob
TTITLE12=Mick Moloney - Molloy's Favourite and The Earl's Chair
TTITLE13=The Glenside Ceili Band - The Music Of The Glen/Green Gate
TTITLE14=The Glenside Ceili Band - The Bridge Below The Town
TTITLE15=The Glenside Ceili Band - Jigs: Tonro's/The Leitrim
TTITLE16=The Johnstones - The Kilfenora Jig
TTITLE17=The Johnstones - The Story Of Isaac
TTITLE18=The Johnstones - Reels
TTITLE19=The Kilfenora Ceili Band - Reels
TTITLE20=The Kilfenora Ceili Band - Polka
TTITLE21=The Kilfenora Ceili Band - Reels
EXTD=
EXTT0=
EXTT1=
EXTT2=
EXTT3=
EXTT4=
EXTT5=
EXTT6=
EXTT7=
EXTT8=
EXTT9=
EXTT10=
EXTT11=
EXTT12=
EXTT13=
EXTT14=
EXTT15=
EXTT16=
EXTT17=
EXTT18=
EXTT19=
EXTT20=
EXTT21=
PLAYORDER=
